<svg xmlns="http://www.w3.org/2000/svg" xmlns:xlink="http://www.w3.org/1999/xlink" width="480" zoomAndPan="magnify" viewBox="0 0 360 503.999982" height="672" preserveAspectRatio="xMidYMid meet" version="1.0"><defs><clipPath id="e93836d329"><path d="M 18 27 L 330 27 L 330 441 L 18 441 Z M 18 27 " clip-rule="nonzero"/></clipPath><clipPath id="dce01ccdd2"><path d="M 359.992188 34.496094 L 312.117188 467.605469 L -0.230469 433.082031 L 47.644531 -0.03125 Z M 359.992188 34.496094 " clip-rule="nonzero"/></clipPath><clipPath id="a926b5ad12"><path d="M 47.914062 0 L 0.0390625 433.109375 L 312.386719 467.636719 L 360.261719 34.523438 Z M 47.914062 0 " clip-rule="nonzero"/></clipPath></defs><g clip-path="url(#e93836d329)"><g clip-path="url(#dce01ccdd2)"><g clip-path="url(#a926b5ad12)"><path fill="#121212" d="M 205.65625 64.960938 C 195.660156 62.890625 165.339844 57.800781 152.621094 67.371094 C 150.117188 69.253906 147.519531 71.0625 145.378906 73.347656 C 142.753906 76.144531 140.820312 79.511719 138.914062 82.839844 C 135.042969 89.617188 131.152344 96.503906 129.191406 104.058594 C 125.933594 116.582031 128.25 129.566406 130.050781 142.125 C 131.675781 153.441406 133.941406 165.539062 129.0625 176.175781 C 120.289062 195.304688 102.785156 210.367188 82.367188 215.753906 C 72.375 218.390625 61.769531 218.863281 52.257812 222.894531 C 36.609375 229.515625 26.140625 245.074219 21.6875 261.445312 C 17.238281 277.824219 17.992188 295.117188 19.289062 312.042969 C 21.5 341.046875 25.183594 369.945312 30.308594 398.574219 C 31.90625 407.507812 33.730469 416.632812 38.449219 424.390625 C 43.167969 432.148438 51.410156 438.386719 60.5 438.230469 C 75.316406 437.976562 84.75 422.289062 98.246094 416.183594 C 116.089844 408.113281 136.472656 418.089844 153.613281 427.574219 C 170.75 437.058594 191.710938 446.378906 209.019531 437.226562 C 226.886719 427.777344 230.941406 403.640625 245.769531 389.914062 C 254.328125 381.984375 265.789062 378.15625 276.226562 372.9375 C 291.109375 365.496094 304.375 354.863281 314.875 341.96875 C 321.539062 333.789062 327.203125 324.386719 328.714844 313.949219 C 331.628906 293.683594 318.683594 274.960938 312.730469 255.367188 C 304.972656 229.832031 309.199219 202.300781 315.074219 176.265625 C 320.953125 150.230469 328.433594 124.066406 327.023438 97.414062 C 325.613281 70.757812 313.21875 42.804688 289.199219 31.101562 C 278.4375 25.859375 264.136719 24.832031 255.609375 33.210938 C 248.75 39.949219 247.515625 50.796875 241.070312 57.933594 C 232.628906 67.296875 218.007812 67.519531 205.65625 64.960938 Z M 205.65625 64.960938 " fill-opacity="1" fill-rule="nonzero"/></g></g></g></svg>