<svg xmlns="http://www.w3.org/2000/svg" xmlns:xlink="http://www.w3.org/1999/xlink" width="500" zoomAndPan="magnify" viewBox="0 0 375 374.999991" height="500" preserveAspectRatio="xMidYMid meet" version="1.0"><defs><g/></defs><g fill="#ffffff" fill-opacity="1"><g transform="translate(0.604241, 262.334445)"><g><path d="M 225.3125 -60.734375 L 273.144531 -60.734375 L 273.144531 -248.914062 C 273.144531 -250.175781 271.886719 -251.746094 269.683594 -251.746094 L 228.144531 -251.746094 C 226.886719 -251.746094 225.3125 -250.804688 224.683594 -249.859375 L 138.777344 -65.453125 L 48.460938 -249.859375 C 48.148438 -250.804688 46.257812 -251.746094 45.316406 -251.746094 L 3.148438 -251.746094 C 0.945312 -251.746094 0 -250.175781 0 -248.914062 L 0 -2.832031 C 0 -1.574219 0.945312 0 3.148438 0 L 44.683594 0 C 46.574219 0 48.148438 -1.574219 48.148438 -2.832031 L 48.148438 -144.125 L 116.433594 -11.957031 C 116.746094 -11.015625 118.636719 -10.070312 119.578125 -10.070312 L 158.285156 -10.070312 C 159.230469 -10.070312 160.804688 -11.015625 161.117188 -11.957031 L 225.3125 -140.664062 Z M 225.3125 -60.734375 "/></g></g></g><g fill="#ffffff" fill-opacity="1"><g transform="translate(249.495076, 373.074139)"><g><path d="M 102.585938 -43.113281 L 77.414062 -43.113281 L 77.414062 -251.746094 L 29.265625 -251.746094 L 29.265625 -43.113281 L 3.460938 -43.113281 C 1.574219 -43.113281 0 -41.851562 0 -40.28125 L 0 -2.832031 C 0 -1.574219 1.574219 0 3.460938 0 L 102.585938 0 C 104.789062 0 106.046875 -1.574219 106.046875 -2.832031 L 106.046875 -40.28125 C 106.046875 -41.851562 104.789062 -43.113281 102.585938 -43.113281 Z M 102.585938 -43.113281 "/></g></g></g><g fill="#ffffff" fill-opacity="1"><g transform="translate(4.316251, 304.808386)"><g><path d="M 23.953125 -22.21875 L 23.953125 0 L 18.8125 0 L 18.8125 -13.328125 L 15.03125 -4.25 L 10.5625 -4.25 L 6.84375 -13.328125 L 6.84375 0 L 1.703125 0 L 1.703125 -22.21875 L 8.40625 -22.21875 L 12.90625 -11.015625 L 17.5 -22.21875 Z M 23.953125 -22.21875 "/></g></g></g><g fill="#ffffff" fill-opacity="1"><g transform="translate(49.294393, 304.808386)"><g><path d="M 7.1875 -22.21875 L 7.1875 0 L 1.703125 0 L 1.703125 -22.21875 Z M 7.1875 -22.21875 "/></g></g></g><g fill="#ffffff" fill-opacity="1"><g transform="translate(77.50935, 304.808386)"><g><path d="M 11.34375 -4.78125 C 12.28125 -4.78125 13.304688 -4.878906 14.421875 -5.078125 C 15.535156 -5.285156 16.53125 -5.550781 17.40625 -5.875 L 17.40625 -1.03125 C 16.101562 -0.507812 14.929688 -0.148438 13.890625 0.046875 C 12.847656 0.253906 11.757812 0.359375 10.625 0.359375 C 8.570312 0.359375 6.929688 0.125 5.703125 -0.34375 C 4.472656 -0.820312 3.492188 -1.582031 2.765625 -2.625 C 2.148438 -3.519531 1.691406 -4.664062 1.390625 -6.0625 C 1.097656 -7.457031 0.953125 -9.144531 0.953125 -11.125 C 0.953125 -15.09375 1.804688 -17.992188 3.515625 -19.828125 C 5.234375 -21.660156 7.957031 -22.578125 11.6875 -22.578125 C 12.78125 -22.578125 13.75 -22.550781 14.59375 -22.5 C 15.445312 -22.457031 16.21875 -22.375 16.90625 -22.25 L 16.90625 -17.46875 C 16.125 -17.519531 15.3125 -17.554688 14.46875 -17.578125 C 13.632812 -17.597656 12.707031 -17.609375 11.6875 -17.609375 C 10.394531 -17.609375 9.429688 -17.484375 8.796875 -17.234375 C 8.171875 -16.992188 7.707031 -16.566406 7.40625 -15.953125 C 7.125 -15.472656 6.921875 -14.84375 6.796875 -14.0625 C 6.679688 -13.289062 6.625 -12.3125 6.625 -11.125 C 6.625 -10.019531 6.675781 -9.09375 6.78125 -8.34375 C 6.894531 -7.601562 7.066406 -6.984375 7.296875 -6.484375 C 7.609375 -5.867188 8.054688 -5.429688 8.640625 -5.171875 C 9.234375 -4.910156 10.132812 -4.78125 11.34375 -4.78125 Z M 11.34375 -4.78125 "/></g></g></g><g fill="#ffffff" fill-opacity="1"><g transform="translate(114.832431, 304.808386)"><g><path d="M 7.1875 0 L 1.703125 0 L 1.703125 -22.21875 L 7.1875 -22.21875 L 7.1875 -13.75 L 14.984375 -13.75 L 14.984375 -22.21875 L 20.484375 -22.21875 L 20.484375 0 L 14.984375 0 L 14.984375 -8.78125 L 7.1875 -8.78125 Z M 7.1875 0 "/></g></g></g><g fill="#ffffff" fill-opacity="1"><g transform="translate(156.33744, 304.808386)"><g><path d="M 5.671875 0 L -0.109375 0 L 8.109375 -22.21875 L 13.828125 -22.21875 L 21.828125 0 L 16.09375 0 L 14.921875 -3.71875 L 6.84375 -3.71875 Z M 10.84375 -16.765625 C 10.65625 -16.097656 10.445312 -15.390625 10.21875 -14.640625 C 10 -13.898438 9.628906 -12.691406 9.109375 -11.015625 L 8.1875 -8.078125 L 13.53125 -8.078125 L 12.609375 -11.015625 C 12.304688 -11.921875 12 -12.875 11.6875 -13.875 C 11.382812 -14.875 11.101562 -15.835938 10.84375 -16.765625 Z M 10.84375 -16.765625 "/></g></g></g><g fill="#ffffff" fill-opacity="1"><g transform="translate(197.452618, 304.808386)"><g><path d="M 17.015625 -5.140625 L 17.015625 0 L 1.703125 0 L 1.703125 -22.21875 L 16.6875 -22.21875 L 16.6875 -17.265625 L 7.1875 -17.265625 L 7.1875 -13.578125 L 15.375 -13.578125 L 15.375 -8.96875 L 7.1875 -8.96875 L 7.1875 -5.140625 Z M 17.015625 -5.140625 "/></g></g></g><g fill="#ffffff" fill-opacity="1"><g transform="translate(234.669385, 304.808386)"><g><path d="M 15.875 -5.140625 L 15.875 0 L 1.703125 0 L 1.703125 -22.21875 L 7.1875 -22.21875 L 7.1875 -5.140625 Z M 15.875 -5.140625 "/></g></g></g><g fill="#ffffff" fill-opacity="1"><g transform="translate(280.630107, 95.559599)"><g><path d="M 7.1875 -22.21875 L 7.1875 0 L 1.703125 0 L 1.703125 -22.21875 Z M 7.1875 -22.21875 "/></g></g></g><g fill="#ffffff" fill-opacity="1"><g transform="translate(291.333457, 95.559599)"><g><path d="M 7.1875 -7.15625 L 7.1875 0 L 1.703125 0 L 1.703125 -22.21875 L 9.8125 -22.21875 C 13.238281 -22.21875 15.671875 -21.640625 17.109375 -20.484375 C 18.554688 -19.328125 19.28125 -17.398438 19.28125 -14.703125 C 19.28125 -12.890625 18.894531 -11.410156 18.125 -10.265625 C 17.351562 -9.117188 16.191406 -8.285156 14.640625 -7.765625 L 20.0625 0 L 13.46875 0 L 8.859375 -7.15625 Z M 13.71875 -14.703125 C 13.71875 -15.648438 13.429688 -16.3125 12.859375 -16.6875 C 12.296875 -17.070312 11.28125 -17.265625 9.8125 -17.265625 L 7.1875 -17.265625 L 7.1875 -11.59375 L 9.8125 -11.59375 C 11.28125 -11.59375 12.296875 -11.820312 12.859375 -12.28125 C 13.429688 -12.738281 13.71875 -13.546875 13.71875 -14.703125 Z M 13.71875 -14.703125 "/></g></g></g><g fill="#ffffff" fill-opacity="1"><g transform="translate(313.590305, 95.559599)"><g><path d="M 17.015625 -5.140625 L 17.015625 0 L 1.703125 0 L 1.703125 -22.21875 L 16.6875 -22.21875 L 16.6875 -17.265625 L 7.1875 -17.265625 L 7.1875 -13.578125 L 15.375 -13.578125 L 15.375 -8.96875 L 7.1875 -8.96875 L 7.1875 -5.140625 Z M 17.015625 -5.140625 "/></g></g></g><g fill="#ffffff" fill-opacity="1"><g transform="translate(333.295466, 95.559599)"><g><path d="M 20.875 -22.21875 L 20.875 0 L 15.625 0 L 6.84375 -12.828125 L 6.84375 0 L 1.703125 0 L 1.703125 -22.21875 L 6.90625 -22.21875 L 15.734375 -8.890625 L 15.734375 -22.21875 Z M 20.875 -22.21875 "/></g></g></g><g fill="#ffffff" fill-opacity="1"><g transform="translate(357.678722, 95.559599)"><g><path d="M 17.015625 -5.140625 L 17.015625 0 L 1.703125 0 L 1.703125 -22.21875 L 16.6875 -22.21875 L 16.6875 -17.265625 L 7.1875 -17.265625 L 7.1875 -13.578125 L 15.375 -13.578125 L 15.375 -8.96875 L 7.1875 -8.96875 L 7.1875 -5.140625 Z M 17.015625 -5.140625 "/></g></g></g></svg>