<svg xmlns="http://www.w3.org/2000/svg" xmlns:xlink="http://www.w3.org/1999/xlink" width="500" zoomAndPan="magnify" viewBox="0 0 375 374.999991" height="500" preserveAspectRatio="xMidYMid meet" version="1.0"><defs><g/></defs><g fill="#000000" fill-opacity="1"><g transform="translate(0.0000045, 259.201759)"><g><path d="M 225.660156 -60.828125 L 273.566406 -60.828125 L 273.566406 -249.296875 C 273.566406 -250.558594 272.304688 -252.132812 270.097656 -252.132812 L 228.496094 -252.132812 C 227.234375 -252.132812 225.660156 -251.1875 225.03125 -250.242188 L 138.988281 -65.554688 L 48.535156 -250.242188 C 48.222656 -251.1875 46.328125 -252.132812 45.382812 -252.132812 L 3.152344 -252.132812 C 0.945312 -252.132812 0 -250.558594 0 -249.296875 L 0 -2.835938 C 0 -1.574219 0.945312 0 3.152344 0 L 44.753906 0 C 46.644531 0 48.222656 -1.574219 48.222656 -2.835938 L 48.222656 -144.347656 L 116.613281 -11.976562 C 116.925781 -11.03125 118.820312 -10.085938 119.765625 -10.085938 L 158.53125 -10.085938 C 159.476562 -10.085938 161.050781 -11.03125 161.367188 -11.976562 L 225.660156 -140.878906 Z M 225.660156 -60.828125 "/></g></g></g><g fill="#000000" fill-opacity="1"><g transform="translate(249.273431, 370.111694)"><g><path d="M 102.746094 -43.179688 L 77.53125 -43.179688 L 77.53125 -252.132812 L 29.3125 -252.132812 L 29.3125 -43.179688 L 3.46875 -43.179688 C 1.574219 -43.179688 0 -41.917969 0 -40.339844 L 0 -2.835938 C 0 -1.574219 1.574219 0 3.46875 0 L 102.746094 0 C 104.949219 0 106.210938 -1.574219 106.210938 -2.835938 L 106.210938 -40.339844 C 106.210938 -41.917969 104.949219 -43.179688 102.746094 -43.179688 Z M 102.746094 -43.179688 "/></g></g></g><g fill="#000000" fill-opacity="1"><g transform="translate(11.598841, 301.740973)"><g><path d="M 24 -22.265625 L 24 0 L 18.84375 0 L 18.84375 -13.34375 L 15.046875 -4.265625 L 10.578125 -4.265625 L 6.84375 -13.34375 L 6.84375 0 L 1.703125 0 L 1.703125 -22.265625 L 8.40625 -22.265625 L 12.921875 -11.046875 L 17.53125 -22.265625 Z M 24 -22.265625 "/></g></g></g><g fill="#000000" fill-opacity="1"><g transform="translate(56.646127, 301.740973)"><g><path d="M 7.203125 -22.265625 L 7.203125 0 L 1.703125 0 L 1.703125 -22.265625 Z M 7.203125 -22.265625 "/></g></g></g><g fill="#000000" fill-opacity="1"><g transform="translate(84.904458, 301.740973)"><g><path d="M 11.359375 -4.796875 C 12.304688 -4.796875 13.332031 -4.894531 14.4375 -5.09375 C 15.550781 -5.289062 16.550781 -5.554688 17.4375 -5.890625 L 17.4375 -1.03125 C 16.132812 -0.507812 14.960938 -0.148438 13.921875 0.046875 C 12.878906 0.253906 11.789062 0.359375 10.65625 0.359375 C 8.59375 0.359375 6.945312 0.125 5.71875 -0.34375 C 4.488281 -0.820312 3.503906 -1.582031 2.765625 -2.625 C 2.148438 -3.519531 1.691406 -4.664062 1.390625 -6.0625 C 1.097656 -7.46875 0.953125 -9.160156 0.953125 -11.140625 C 0.953125 -15.117188 1.8125 -18.023438 3.53125 -19.859375 C 5.25 -21.691406 7.976562 -22.609375 11.71875 -22.609375 C 12.800781 -22.609375 13.769531 -22.582031 14.625 -22.53125 C 15.476562 -22.488281 16.25 -22.410156 16.9375 -22.296875 L 16.9375 -17.5 C 16.15625 -17.550781 15.34375 -17.585938 14.5 -17.609375 C 13.65625 -17.628906 12.726562 -17.640625 11.71875 -17.640625 C 10.414062 -17.640625 9.445312 -17.515625 8.8125 -17.265625 C 8.1875 -17.015625 7.722656 -16.582031 7.421875 -15.96875 C 7.140625 -15.5 6.9375 -14.875 6.8125 -14.09375 C 6.695312 -13.3125 6.640625 -12.328125 6.640625 -11.140625 C 6.640625 -10.035156 6.691406 -9.109375 6.796875 -8.359375 C 6.898438 -7.609375 7.070312 -6.988281 7.3125 -6.5 C 7.625 -5.882812 8.070312 -5.445312 8.65625 -5.1875 C 9.25 -4.925781 10.148438 -4.796875 11.359375 -4.796875 Z M 11.359375 -4.796875 "/></g></g></g><g fill="#000000" fill-opacity="1"><g transform="translate(122.284914, 301.740973)"><g><path d="M 7.203125 0 L 1.703125 0 L 1.703125 -22.265625 L 7.203125 -22.265625 L 7.203125 -13.78125 L 15.015625 -13.78125 L 15.015625 -22.265625 L 20.515625 -22.265625 L 20.515625 0 L 15.015625 0 L 15.015625 -8.796875 L 7.203125 -8.796875 Z M 7.203125 0 "/></g></g></g><g fill="#000000" fill-opacity="1"><g transform="translate(163.853727, 301.740973)"><g><path d="M 5.6875 0 L -0.109375 0 L 8.125 -22.265625 L 13.84375 -22.265625 L 21.875 0 L 16.109375 0 L 14.953125 -3.734375 L 6.84375 -3.734375 Z M 10.859375 -16.796875 C 10.671875 -16.128906 10.460938 -15.421875 10.234375 -14.671875 C 10.015625 -13.929688 9.644531 -12.722656 9.125 -11.046875 L 8.203125 -8.09375 L 13.5625 -8.09375 L 12.640625 -11.046875 C 12.328125 -11.941406 12.015625 -12.890625 11.703125 -13.890625 C 11.398438 -14.898438 11.117188 -15.867188 10.859375 -16.796875 Z M 10.859375 -16.796875 "/></g></g></g><g fill="#000000" fill-opacity="1"><g transform="translate(205.032111, 301.740973)"><g><path d="M 17.046875 -5.140625 L 17.046875 0 L 1.703125 0 L 1.703125 -22.265625 L 16.71875 -22.265625 L 16.71875 -17.28125 L 7.203125 -17.28125 L 7.203125 -13.59375 L 15.40625 -13.59375 L 15.40625 -8.984375 L 7.203125 -8.984375 L 7.203125 -5.140625 Z M 17.046875 -5.140625 "/></g></g></g><g fill="#000000" fill-opacity="1"><g transform="translate(242.30609, 301.740973)"><g><path d="M 15.90625 -5.140625 L 15.90625 0 L 1.703125 0 L 1.703125 -22.265625 L 7.203125 -22.265625 L 7.203125 -5.140625 Z M 15.90625 -5.140625 "/></g></g></g><g fill="#000000" fill-opacity="1"><g transform="translate(280.456316, 92.17051)"><g><path d="M 7.203125 -22.265625 L 7.203125 0 L 1.703125 0 L 1.703125 -22.265625 Z M 7.203125 -22.265625 "/></g></g></g><g fill="#000000" fill-opacity="1"><g transform="translate(291.17612, 92.17051)"><g><path d="M 7.203125 -7.171875 L 7.203125 0 L 1.703125 0 L 1.703125 -22.265625 L 9.828125 -22.265625 C 13.265625 -22.265625 15.703125 -21.679688 17.140625 -20.515625 C 18.585938 -19.359375 19.3125 -17.429688 19.3125 -14.734375 C 19.3125 -12.910156 18.925781 -11.425781 18.15625 -10.28125 C 17.382812 -9.132812 16.21875 -8.300781 14.65625 -7.78125 L 20.09375 0 L 13.484375 0 L 8.875 -7.171875 Z M 13.734375 -14.734375 C 13.734375 -15.679688 13.445312 -16.34375 12.875 -16.71875 C 12.3125 -17.09375 11.296875 -17.28125 9.828125 -17.28125 L 7.203125 -17.28125 L 7.203125 -11.609375 L 9.828125 -11.609375 C 11.296875 -11.609375 12.3125 -11.835938 12.875 -12.296875 C 13.445312 -12.765625 13.734375 -13.578125 13.734375 -14.734375 Z M 13.734375 -14.734375 "/></g></g></g><g fill="#000000" fill-opacity="1"><g transform="translate(313.467182, 92.17051)"><g><path d="M 17.046875 -5.140625 L 17.046875 0 L 1.703125 0 L 1.703125 -22.265625 L 16.71875 -22.265625 L 16.71875 -17.28125 L 7.203125 -17.28125 L 7.203125 -13.59375 L 15.40625 -13.59375 L 15.40625 -8.984375 L 7.203125 -8.984375 L 7.203125 -5.140625 Z M 17.046875 -5.140625 "/></g></g></g><g fill="#000000" fill-opacity="1"><g transform="translate(333.202636, 92.17051)"><g><path d="M 20.90625 -22.265625 L 20.90625 0 L 15.65625 0 L 6.84375 -12.84375 L 6.84375 0 L 1.703125 0 L 1.703125 -22.265625 L 6.921875 -22.265625 L 15.765625 -8.90625 L 15.765625 -22.265625 Z M 20.90625 -22.265625 "/></g></g></g><g fill="#000000" fill-opacity="1"><g transform="translate(357.623376, 92.17051)"><g><path d="M 17.046875 -5.140625 L 17.046875 0 L 1.703125 0 L 1.703125 -22.265625 L 16.71875 -22.265625 L 16.71875 -17.28125 L 7.203125 -17.28125 L 7.203125 -13.59375 L 15.40625 -13.59375 L 15.40625 -8.984375 L 7.203125 -8.984375 L 7.203125 -5.140625 Z M 17.046875 -5.140625 "/></g></g></g></svg>